HIERARCHY
ROOT Hips
{
  OFFSET 0.000000 0.000000 0.000000
  CHANNELS 6 Xposition Yposition Zposition Xrotation Yrotation Zrotation
  JOINT Spine
  {
    OFFSET 0.000000 10.000000 0.000000
    CHANNELS 3 Xrotation Yrotation Zrotation
    JOINT Chest
    {
      OFFSET 0.000000 15.000000 0.000000
      CHANNELS 3 Xrotation Yrotation Zrotation
      JOINT Neck
      {
        OFFSET 0.000000 15.000000 0.000000
        CHANNELS 3 Xrotation Yrotation Zrotation
        JOINT Head
        {
          OFFSET 0.000000 10.000000 0.000000
          CHANNELS 3 Xrotation Yrotation Zrotation
          End Site
          {
            OFFSET 0.0 5.0 2.0
          }
        }
      }
      JOINT LeftShoulder
      {
        OFFSET 20.000000 5.000000 0.000000
        CHANNELS 3 Xrotation Yrotation Zrotation
        JOINT LeftArm
        {
          OFFSET 15.000000 0.000000 0.000000
          CHANNELS 3 Xrotation Yrotation Zrotation
          JOINT LeftForeArm
          {
            OFFSET 25.000000 0.000000 0.000000
            CHANNELS 3 Xrotation Yrotation Zrotation
            JOINT LeftHand
            {
              OFFSET 20.000000 0.000000 0.000000
              CHANNELS 3 Xrotation Yrotation Zrotation
              End Site
              {
                OFFSET -3.0 0.0 2.0
              }
            }
          }
        }
      }
      JOINT RightShoulder
      {
        OFFSET -20.000000 5.000000 0.000000
        CHANNELS 3 Xrotation Yrotation Zrotation
        JOINT RightArm
        {
          OFFSET -15.000000 0.000000 0.000000
          CHANNELS 3 Xrotation Yrotation Zrotation
          JOINT RightForeArm
          {
            OFFSET -25.000000 0.000000 0.000000
            CHANNELS 3 Xrotation Yrotation Zrotation
            JOINT RightHand
            {
              OFFSET -20.000000 0.000000 0.000000
              CHANNELS 3 Xrotation Yrotation Zrotation
              End Site
              {
                OFFSET 3.0 0.0 2.0
              }
            }
          }
        }
      }
    }
  }
  JOINT LeftUpLeg
  {
    OFFSET 10.000000 -10.000000 0.000000
    CHANNELS 3 Xrotation Yrotation Zrotation
    JOINT LeftLeg
    {
      OFFSET 0.000000 -45.000000 0.000000
      CHANNELS 3 Xrotation Yrotation Zrotation
      JOINT LeftFoot
      {
        OFFSET 0.000000 -45.000000 0.000000
        CHANNELS 3 Xrotation Yrotation Zrotation
        JOINT LeftToeBase
        {
          OFFSET 0.000000 0.000000 10.000000
          CHANNELS 3 Xrotation Yrotation Zrotation
          End Site
          {
            OFFSET 0.0 -1.0 3.0
          }
        }
      }
    }
  }
  JOINT RightUpLeg
  {
    OFFSET -10.000000 -10.000000 0.000000
    CHANNELS 3 Xrotation Yrotation Zrotation
    JOINT RightLeg
    {
      OFFSET 0.000000 -45.000000 0.000000
      CHANNELS 3 Xrotation Yrotation Zrotation
      JOINT RightFoot
      {
        OFFSET 0.000000 -45.000000 0.000000
        CHANNELS 3 Xrotation Yrotation Zrotation
        JOINT RightToeBase
        {
          OFFSET 0.000000 0.000000 10.000000
          CHANNELS 3 Xrotation Yrotation Zrotation
          End Site
          {
            OFFSET 0.0 -1.0 3.0
          }
        }
      }
    }
  }
}
MOTION
Frames: 5
Frame Time: 0.033333
2.366453 0.591983 7.421491 20.427889 18.088839 -83.228753 -48.448121 -29.608534 -60.862406 -48.448121 -29.608534 -60.862406 -90.208973 -12.970594 -12.925490 14.299646 -11.965650 79.747756 -7.790012 14.262786 -57.100108 -25.090505 10.316550 -135.848236 118.153374 9.121041 174.499121 118.153374 9.121041 174.499121 11.150817 12.741601 82.310133 -10.682209 -19.248050 57.753384 135.088946 -71.609213 -146.744918 135.088946 -71.609213 -146.744918 5.998525 -0.110028 2.101868 -30.010396 0.272768 1.023055 50.126306 -17.610015 -8.269326 21.167182 -3.125388 -0.565758 78.065238 19.419728 -23.810708 -14.384129 -1.431935 -11.289430 15.074555 -33.567207 -4.488061 -2.609776 -34.656966 0.935298
3.944959 0.586903 12.474109 19.271921 17.285618 -83.931877 -48.401874 -29.602055 -60.905971 -48.401874 -29.602055 -60.905971 -90.251523 -12.731709 -12.677748 14.254499 -11.965781 79.937604 -7.399902 13.625407 -56.792110 -26.166177 10.888532 -135.467062 123.848277 9.272074 175.018680 123.848277 9.272074 175.018680 10.700200 12.282392 82.038415 -11.155462 -20.174057 57.555326 137.152646 -71.477489 -148.424136 137.152646 -71.477489 -148.424136 6.038855 -0.105268 1.997734 -29.479384 0.291212 1.113181 50.988450 -16.726587 -7.992862 22.453039 -2.383834 -0.441369 76.605042 18.427017 -23.130659 -15.245457 -1.541448 -11.446186 17.445001 -31.464169 -4.790766 0.708138 -32.446821 0.047901
5.858606 0.578871 18.706636 18.863856 17.021284 -84.197631 -48.147664 -29.566568 -61.145489 -48.147664 -29.566568 -61.145489 -90.254893 -12.552855 -12.498366 14.043624 -11.836134 80.180480 -6.550662 12.168550 -56.146609 -26.029288 11.058714 -134.477604 129.556593 9.379252 175.551258 129.556593 9.379252 175.551258 10.078287 11.616343 81.803665 -11.692615 -21.225312 57.335413 138.839768 -71.427114 -149.764984 138.839768 -71.427114 -149.764984 5.946530 -0.099839 1.922484 -29.210333 0.329885 1.267721 52.532387 -15.691782 -7.735369 24.420712 -1.585541 -0.299009 74.856711 16.767098 -21.631989 -15.553458 -1.600195 -11.661663 19.571979 -28.500113 -4.843870 3.996220 -29.211062 -0.728341
8.505885 0.563953 27.640094 19.269880 17.314627 -83.961109 -47.326790 -29.433701 -61.911006 -47.326790 -29.433701 -61.911006 -90.188273 -12.498456 -12.458907 13.249998 -11.240584 80.614629 -5.102549 9.615525 -55.039785 -25.192897 11.156590 -132.442470 139.552278 9.730695 176.437244 139.552278 9.730695 176.437244 9.045177 10.498074 81.393707 -12.384354 -22.498357 57.226974 141.267545 -71.376638 -151.664676 141.267545 -71.376638 -151.664676 5.664455 -0.091380 1.848486 -29.161865 0.445292 1.692372 54.998939 -14.656663 -7.637221 27.451437 -1.080339 -0.259627 72.297765 13.968804 -18.766399 -15.053939 -1.543698 -11.520003 21.315242 -25.155615 -4.751316 7.013471 -25.866133 -1.457457
10.831930 0.546927 35.940586 25.342393 19.798196 -79.171168 -46.002630 -29.206300 -63.140143 -46.002630 -29.206300 -63.140143 -89.976407 -12.745244 -12.753794 12.085444 -10.319936 81.015343 -3.169686 6.046144 -53.787804 -21.798723 10.151683 -129.424935 149.799236 10.220886 177.317043 149.799236 10.220886 177.317043 7.994396 9.341094 80.979598 -12.664455 -22.944105 57.344593 143.259356 -71.464374 -153.117345 143.259356 -71.464374 -153.117345 4.923613 -0.080571 1.892243 -29.937967 0.714628 2.576641 57.409918 -15.136678 -8.365553 30.198905 -2.605065 -0.774178 69.706987 10.663118 -14.919882 -12.408253 -1.250334 -10.805395 20.243090 -22.787872 -4.132188 6.572021 -23.791371 -1.333688
